<svg width="96" height="99" viewBox="0 0 96 99" fill="none" xmlns="http://www.w3.org/2000/svg">
<path d="M47.2057 6.77833C41.2538 7.35144 36.7725 12.6508 37.3451 18.6035L40.2923 49.2127L30.1991 54.0262C26.7536 48.1583 19.3317 45.8024 13.0753 48.7869C6.46921 51.9391 3.66864 59.8473 6.81895 66.4543C9.97045 73.0598 17.8795 75.8623 24.4872 72.7108C29.021 70.5482 31.7613 66.1434 32.0163 61.4587L44.3775 55.5623L45.6896 69.1935C41.8062 71.8254 39.4421 76.4427 39.9224 81.4425C40.6245 88.7293 47.0993 94.065 54.3843 93.3643C61.671 92.6623 67.0076 86.188 66.3067 78.9028C65.6423 72.0035 59.8003 66.8553 52.9963 66.9233L51.924 55.7926L79.6777 42.5543C85.076 39.9798 87.3096 33.4087 84.7353 28.0117L50.808 44.1963L47.2057 6.77833ZM24.8006 64.1209C22.9322 67.4233 18.7402 68.5859 15.4378 66.7175C12.1354 64.8491 10.9729 60.6569 12.8413 57.3546C14.7101 54.0515 18.9017 52.8897 22.2041 54.7581C25.5065 56.6265 26.6695 60.8178 24.8006 64.1209ZM59.0841 83.5176C57.2157 86.82 53.0237 87.9825 49.7213 86.1141C46.4189 84.2457 45.2564 80.0537 47.1248 76.7513C48.9936 73.4482 53.1852 72.2864 56.4876 74.1548C59.7898 76.0231 60.953 80.2145 59.0841 83.5176Z" fill="#99BAED"/>
</svg>
